{
  "source": "C:\\Users\\Peter\\Desktop\\stuff\\MIUN\\quantitative_research\\video_compression\\videos\\UVG\\Beauty_1920x1080_120fps_420_8bit_YUV.y4m",
  "output": "C:\\Users\\Peter\\Desktop\\stuff\\MIUN\\quantitative_research\\video_compression\\compressed_videos\\UVG\\h264\\1\\Beauty_1920x1080_120fps_420_8bit_YUV_h264.mp4",
  "codec": "h264",
  "ok": "[yuv4mpegpipe @ 000001eb11875e00] Stream #0: not enough frames to estimate rate; consider increasing probesize\nInput #0, yuv4mpegpipe, from 'C:\\Users\\Peter\\Desktop\\stuff\\MIUN\\quantitative_research\\video_compression\\videos\\UVG\\Beauty_1920x1080_120fps_420_8bit_YUV.y4m':\n  Duration: 00:00:05.00, start: 0.000000, bitrate: 2985989 kb/s\n  Stream #0:0: Video: rawvideo (I420 / 0x30323449), yuv420p(progressive), 1920x1080, 120 fps, 120 tbr, 120 tbn\n[out#0/mp4 @ 000001eb1187a600] Codec AVOption b:a (set bitrate (in bits/s)) has not been used for any stream. The most likely reason is either wrong type (e.g. a video option with no video streams) or that it is a private option of some decoder which was not actually used for any stream.\nStream mapping:\n  Stream #0:0 -> #0:0 (rawvideo (native) -> h264 (libx264))\nPress [q] to stop, [?] for help\n[libx264 @ 000001eb1187ca80] using cpu capabilities: MMX2 SSE2Fast SSSE3 SSE4.2 AVX FMA3 BMI2 AVX2\n[libx264 @ 000001eb1187ca80] profile High, level 5.1, 4:2:0, 8-bit\n[libx264 @ 000001eb1187ca80] 264 - core 165 r3222 b35605a - H.264/MPEG-4 AVC codec - Copyleft 2003-2025 - http://www.videolan.org/x264.html - options: cabac=1 ref=5 deblock=1:0:0 analyse=0x3:0x113 me=hex subme=8 psy=1 psy_rd=1.00:0.00 mixed_ref=1 me_range=16 chroma_me=1 trellis=2 8x8dct=1 cqm=0 deadzone=21,11 fast_pskip=1 chroma_qp_offset=-2 threads=18 lookahead_threads=3 sliced_threads=0 nr=0 decimate=1 interlaced=0 bluray_compat=0 constrained_intra=0 bframes=3 b_pyramid=2 b_adapt=1 b_bias=0 direct=3 weightb=1 open_gop=0 weightp=2 keyint=250 keyint_min=25 scenecut=40 intra_refresh=0 rc_lookahead=50 rc=cbr mbtree=1 bitrate=1000 ratetol=1.0 qcomp=0.60 qpmin=0 qpmax=69 qpstep=4 vbv_maxrate=1000 vbv_bufsize=1000 nal_hrd=none filler=0 ip_ratio=1.40 aq=1:1.00\nOutput #0, mp4, to 'C:\\Users\\Peter\\Desktop\\stuff\\MIUN\\quantitative_research\\video_compression\\compressed_videos\\UVG\\h264\\1\\Beauty_1920x1080_120fps_420_8bit_YUV_h264.mp4':\n  Metadata:\n    encoder         : Lavf62.3.100\n  Stream #0:0: Video: h264 (avc1 / 0x31637661), yuv420p(tv, progressive), 1920x1080, q=2-31, 1000 kb/s, 120 fps, 15360 tbn\n    Metadata:\n      encoder         : Lavc62.11.100 libx264\n    Side data:\n      cpb: bitrate max/min/avg: 1000000/0/1000000 buffer size: 1000000 vbv_delay: N/A\nframe=    0 fps=0.0 q=0.0 size=       0KiB time=N/A bitrate=N/A speed=N/A elapsed=0:00:00.50    \nframe=    0 fps=0.0 q=0.0 size=       0KiB time=N/A bitrate=N/A speed=N/A elapsed=0:00:01.01    \nframe=   36 fps= 23 q=50.0 size=       0KiB time=00:00:00.28 bitrate=   1.4kbits/s speed=0.184x elapsed=0:00:01.53    \nframe=   66 fps= 32 q=50.0 size=       0KiB time=00:00:00.53 bitrate=   0.7kbits/s speed=0.26x elapsed=0:00:02.05    \nframe=   69 fps= 27 q=50.0 size=       0KiB time=00:00:00.55 bitrate=   0.7kbits/s speed=0.218x elapsed=0:00:02.56    \nframe=   86 fps= 28 q=51.0 size=       0KiB time=00:00:00.70 bitrate=   0.5kbits/s speed=0.228x elapsed=0:00:03.07    \nframe=  107 fps= 30 q=51.0 size=       0KiB time=00:00:00.87 bitrate=   0.4kbits/s speed=0.243x elapsed=0:00:03.60    \nframe=  127 fps= 31 q=51.0 size=       0KiB time=00:00:01.04 bitrate=   0.4kbits/s speed=0.254x elapsed=0:00:04.10    \nframe=  149 fps= 32 q=50.0 size=       0KiB time=00:00:01.22 bitrate=   0.3kbits/s speed=0.265x elapsed=0:00:04.63    \nframe=  171 fps= 33 q=50.0 size=       0KiB time=00:00:01.40 bitrate=   0.3kbits/s speed=0.274x elapsed=0:00:05.13    \nframe=  194 fps= 34 q=51.0 size=       0KiB time=00:00:01.60 bitrate=   0.2kbits/s speed=0.282x elapsed=0:00:05.66    \nframe=  215 fps= 35 q=51.0 size=       0KiB time=00:00:01.77 bitrate=   0.2kbits/s speed=0.288x elapsed=0:00:06.17    \nframe=  245 fps= 37 q=51.0 size=       0KiB time=00:00:02.02 bitrate=   0.2kbits/s speed=0.303x elapsed=0:00:06.68    \nframe=  297 fps= 41 q=50.0 size=     256KiB time=00:00:02.45 bitrate= 853.2kbits/s speed=0.341x elapsed=0:00:07.20    \nframe=  346 fps= 45 q=50.0 size=     256KiB time=00:00:02.86 bitrate= 731.7kbits/s speed=0.372x elapsed=0:00:07.71    \nframe=  377 fps= 46 q=50.0 size=     256KiB time=00:00:03.12 bitrate= 671.2kbits/s speed=0.379x elapsed=0:00:08.23    \nframe=  429 fps= 49 q=50.0 size=     256KiB time=00:00:03.55 bitrate= 589.5kbits/s speed=0.406x elapsed=0:00:08.75    \nframe=  463 fps= 50 q=50.0 size=     256KiB time=00:00:03.84 bitrate= 546.0kbits/s speed=0.414x elapsed=0:00:09.26    \nframe=  477 fps= 49 q=50.0 size=     256KiB time=00:00:03.95 bitrate= 529.9kbits/s speed=0.404x elapsed=0:00:09.78    \nframe=  499 fps= 48 q=51.0 size=     256KiB time=00:00:04.14 bitrate= 506.4kbits/s speed=0.402x elapsed=0:00:10.30    \nframe=  519 fps= 48 q=51.0 size=     256KiB time=00:00:04.30 bitrate= 486.9kbits/s speed=0.398x elapsed=0:00:10.82    \nframe=  572 fps= 50 q=50.0 size=     512KiB time=00:00:04.75 bitrate= 883.1kbits/s speed=0.419x elapsed=0:00:11.33    \n[mp4 @ 000001eb1187b700] Starting second pass: moving the moov atom to the beginning of the file\n[out#0/mp4 @ 000001eb1187a600] video:565KiB audio:0KiB subtitle:0KiB other streams:0KiB global headers:0KiB muxing overhead: 0.995815%\nframe=  600 fps= 53 q=-1.0 Lsize=     571KiB time=00:00:04.98 bitrate= 938.3kbits/s speed=0.437x elapsed=0:00:11.41    \n[libx264 @ 000001eb1187ca80] frame I:3     Avg QP:47.04  size:  5198\n[libx264 @ 000001eb1187ca80] frame P:367   Avg QP:47.99  size:  1209\n[libx264 @ 000001eb1187ca80] frame B:230   Avg QP:48.37  size:   515\n[libx264 @ 000001eb1187ca80] consecutive B-frames: 48.7%  0.7%  0.0% 50.7%\n[libx264 @ 000001eb1187ca80] mb I  I16..4: 26.2% 73.6%  0.2%\n[libx264 @ 000001eb1187ca80] mb P  I16..4:  1.9%  0.5%  0.0%  P16..4:  7.8%  0.1%  0.4%  0.0%  0.0%    skip:89.2%\n[libx264 @ 000001eb1187ca80] mb B  I16..4:  0.0%  0.0%  0.0%  B16..8:  6.2%  0.0%  0.0%  direct: 0.0%  skip:93.7%  L0:25.9% L1:73.9% BI: 0.1%\n[libx264 @ 000001eb1187ca80] 8x8 transform intra:34.7% inter:97.3%\n[libx264 @ 000001eb1187ca80] direct mvs  spatial:95.7% temporal:4.3%\n[libx264 @ 000001eb1187ca80] coded y,uvDC,uvAC intra: 0.8% 9.8% 0.0% inter: 0.0% 0.2% 0.0%\n[libx264 @ 000001eb1187ca80] i16 v,h,dc,p: 41% 30%  4% 25%\n[libx264 @ 000001eb1187ca80] i8 v,h,dc,ddl,ddr,vr,hd,vl,hu: 12%  2% 78%  1%  3%  1%  1%  1%  1%\n[libx264 @ 000001eb1187ca80] i4 v,h,dc,ddl,ddr,vr,hd,vl,hu: 40%  7% 21% 10%  7%  5%  3%  4%  2%\n[libx264 @ 000001eb1187ca80] i8c dc,h,v,p: 91%  7%  2%  0%\n[libx264 @ 000001eb1187ca80] Weighted P-Frames: Y:0.0% UV:0.0%\n[libx264 @ 000001eb1187ca80] ref P L0: 58.7%  3.0% 18.3%  6.5%  7.7%  5.8%\n[libx264 @ 000001eb1187ca80] ref B L0: 75.4% 15.6%  6.7%  2.3%\n[libx264 @ 000001eb1187ca80] ref B L1: 93.1%  6.9%\n[libx264 @ 000001eb1187ca80] kb/s:924.74\n",
  "seconds": 11.534744501113892,
  "probe_out": {}
}